<?xml version="1.0" encoding="UTF-8"?><!DOCTYPE svg PUBLIC "-//W3C//DTD SVG 1.1//EN" "http://www.w3.org/Graphics/SVG/1.1/DTD/svg11.dtd"><svg xmlns="http://www.w3.org/2000/svg" xmlns:xlink="http://www.w3.org/1999/xlink" version="1.1" id="Layer_1" x="0px" y="0px" width="91px" height="91px" viewBox="0 0 91 91" xml:space="preserve"><path d="M82.248 74.161H59.044l-.017-2.978a29.847 29.847 0 0 0 8.773-7.044c1.382.474 3.502 1.157 4.625 1.297a15.56 15.56 0 0 0 2.01.147c2.51 0 6.182-.799 8.039-5.603 1.861-4.816.836-8.49-3.052-10.921-1.312-.817-3.253-.842-4.624-.724.055-.442.113-.883.148-1.328a1.128 1.128 0 0 0-1.121-1.213H16.303a1.127 1.127 0 0 0-1.121 1.213c.798 10.152 6.898 19.416 15.896 24.136v3.017H8.749a1.125 1.125 0 0 0 0 2.25h12.898l2.666 3.999c.208.313.56.501.936.501h40.5c.377 0 .729-.188.937-.501l2.666-3.999h12.897a1.125 1.125 0 1 0-.001-2.249zM78.231 50.97c2.96 1.851 3.622 4.38 2.145 8.201-1.623 4.196-4.787 4.394-7.671 4.033-.592-.074-1.863-.427-3.437-.945 2.503-3.448 4.287-7.409 5.157-11.616 1.656-.218 3.123-.098 3.806.327zM32.15 69.193c-7.984-4.212-13.495-12.237-14.603-21.147h55.034c-1.108 8.911-6.62 16.936-14.604 21.148a2.2 2.2 0 0 0-1.176 1.95v3.017H33.327v-3.017c0-.819-.451-1.567-1.177-1.951zm32.996 9.468H25.851l-1.5-2.25H66.647l-1.501 2.25z"/><path d="M23.34 50.635a1.122 1.122 0 0 0-1.365-.817c-.603.15-.969.761-.818 1.363.064.258 1.612 6.339 4.796 9.523.22.22.507.329.795.329s.576-.109.795-.329a1.127 1.127 0 0 0 0-1.592c-2.739-2.74-4.189-8.421-4.203-8.477z"/><path d="M28.956 62.108c-.21.221-.33.51-.33.8s.12.58.33.79.5.33.79.33c.3 0 .59-.12.8-.33.21-.199.33-.489.33-.79 0-.3-.12-.59-.33-.8-.421-.41-1.171-.42-1.59 0z"/><path d="M28.422 26.675c2.31 1.925 3.483 3.995 3.488 6.151.008 3.737-3.455 6.689-3.488 6.718a1.125 1.125 0 1 0 1.441 1.728c.175-.146 4.297-3.637 4.297-8.434 0-2.86-1.446-5.517-4.297-7.893-2.311-1.925-3.484-3.995-3.488-6.151-.008-3.733 3.449-6.685 3.49-6.718a1.125 1.125 0 0 0-1.441-1.728c-.175.146-4.298 3.636-4.298 8.433-.002 2.862 1.444 5.518 4.296 7.894z"/><path d="M44.479 26.675c2.311 1.925 3.484 3.995 3.488 6.151.008 3.737-3.455 6.689-3.488 6.718a1.124 1.124 0 1 0 1.441 1.728c.175-.146 4.298-3.637 4.298-8.434 0-2.86-1.446-5.517-4.298-7.893-2.31-1.925-3.483-3.995-3.488-6.151-.007-3.736 3.454-6.688 3.49-6.718.476-.398.54-1.106.142-1.583a1.124 1.124 0 0 0-1.584-.145c-.175.146-4.297 3.636-4.297 8.433-.002 2.862 1.444 5.518 4.296 7.894z"/><path d="M60.535 26.675c2.311 1.925 3.484 3.995 3.488 6.151.008 3.737-3.455 6.689-3.488 6.718a1.126 1.126 0 0 0 .72 1.989c.254 0 .51-.086.721-.261.175-.146 4.297-3.637 4.297-8.434 0-2.86-1.445-5.517-4.297-7.893-2.311-1.925-3.484-3.995-3.488-6.151-.008-3.735 3.451-6.687 3.489-6.718a1.125 1.125 0 0 0-1.442-1.728c-.175.146-4.297 3.636-4.297 8.433 0 2.862 1.446 5.518 4.297 7.894z"/><metadata><rdf:RDF xmlns:rdf="http://www.w3.org/1999/02/22-rdf-syntax-ns#" xmlns:rdfs="http://www.w3.org/2000/01/rdf-schema#" xmlns:dc="http://purl.org/dc/elements/1.1/"><rdf:Description about="https://iconscout.com/legal#licenses" dc:title="drinks,beverages" dc:description="drinks,beverages" dc:publisher="Iconscout" dc:date="2017-10-18" dc:format="image/svg+xml" dc:language="en"><dc:creator><rdf:Bag><rdf:li>BomSymbols .</rdf:li></rdf:Bag></dc:creator></rdf:Description></rdf:RDF></metadata></svg>