<?xml version="1.0" encoding="UTF-8"?><!DOCTYPE svg PUBLIC "-//W3C//DTD SVG 1.1//EN" "http://www.w3.org/Graphics/SVG/1.1/DTD/svg11.dtd"><svg xmlns="http://www.w3.org/2000/svg" xmlns:xlink="http://www.w3.org/1999/xlink" version="1.1" width="32" height="32" viewBox="0 0 32 32"><path fill="#444" d="M26.852 15.281l-9.848-9.848a1.453 1.453 0 0 0-2.054 0l-2.045 2.045 2.594 2.594a1.725 1.725 0 0 1 2.185 2.199l2.5 2.5a1.728 1.728 0 1 1-1.035.974l-2.332-2.332v6.136a1.73 1.73 0 1 1-1.421-.05v-6.193a1.729 1.729 0 0 1-.938-2.266l-2.557-2.558-6.753 6.752a1.454 1.454 0 0 0 0 2.055l9.849 9.848a1.453 1.453 0 0 0 2.054 0l9.802-9.802a1.454 1.454 0 0 0 0-2.055z"/><metadata><rdf:RDF xmlns:rdf="http://www.w3.org/1999/02/22-rdf-syntax-ns#" xmlns:rdfs="http://www.w3.org/2000/01/rdf-schema#" xmlns:dc="http://purl.org/dc/elements/1.1/"><rdf:Description about="https://iconscout.com/legal#licenses" dc:title="git" dc:description="git" dc:publisher="Iconscout" dc:date="2017-09-24" dc:format="image/svg+xml" dc:language="en"><dc:creator><rdf:Bag><rdf:li>Vorillaz</rdf:li></rdf:Bag></dc:creator></rdf:Description></rdf:RDF></metadata></svg>