<?xml version="1.0" encoding="UTF-8"?><svg xmlns="http://www.w3.org/2000/svg" xmlns:xlink="http://www.w3.org/1999/xlink" viewBox="0 0 50 50" version="1.1"><path d="M1 12v24h25l24-24zm2 2h42.2l-20 20H3zm5.398 4C5 18 4 20.102 4 21.402c0 1.297.7 2.797 2.602 3.399 2 .601 3.496.699 3.496 1.699s-3.399 1.2-5.297 0L4 29.098S5.102 30 8.398 30c1.786 0 3.168-.504 4.082-1.227L12 30h3.5l.598-1.8c.703.3 1.504.5 2.402.5.898 0 1.7-.2 2.402-.5L21.5 30H27v-3h1.5c2.5 0 4.5-2 4.5-4.5S31 18 28.5 18H24v9.5L20.2 18h-3.5l-3.087 7.875c-.406-1.746-2.261-2.41-3.414-2.676C7.2 22.4 7 22 7 21.402c0-1.5 4-.8 5-.402.3-.8.902-2.3.902-2.3s-1.101-.7-4.504-.7zM27 21h1.5c.8 0 1.5.7 1.5 1.5s-.7 1.5-1.5 1.5H27zm-8.5.402L20 25.7c-.398.301-.898.399-1.5.399S17.398 26 17 25.699z" id="surface1"/><metadata><rdf:RDF xmlns:rdf="http://www.w3.org/1999/02/22-rdf-syntax-ns#" xmlns:rdfs="http://www.w3.org/2000/01/rdf-schema#" xmlns:dc="http://purl.org/dc/elements/1.1/"><rdf:Description about="https://iconscout.com/legal#licenses" dc:title="sap" dc:description="sap" dc:publisher="Iconscout" dc:date="2017-12-09" dc:format="image/svg+xml" dc:language="en"><dc:creator><rdf:Bag><rdf:li>Icons8</rdf:li></rdf:Bag></dc:creator></rdf:Description></rdf:RDF></metadata></svg>